# AST/ASF file generated using VICON BodyLanguage
# -----------------------------------------------
:version 1.10
:name VICON
:units
  mass 1.0
  length 0.45
  angle deg
:documentation
   .ast/.asf automatically generated from VICON data using
   VICON BodyBuilder and BodyLanguage model FoxedUp or BRILLIANT.MOD
:root
   order TX TY TZ RX RY RZ
   axis XYZ
   position 0 0 0  
   orientation 0 0 0 
:bonedata
  begin
     id 1 
     name lhipjoint
     direction 0.677091 -0.635792 0.370561 
     length 2.74323 
     axis 0 0 0  XYZ
  end
  begin
     id 2 
     name lfemur
     direction 0.34202 -0.939693 0  
     length 7.44995  
     axis 0 0 20  XYZ
    dof rx ry rz
    limits (-160.0 20.0)
           (-70.0 70.0)
           (-60.0 70.0)
  end
  begin
     id 3 
     name ltibia
     direction 0.34202 -0.939693 0   
     length 7.34467   
     axis 0 0 20   XYZ
    dof rx
    limits (-10.0 170.0)
  end
  begin
     id 4 
     name lfoot
     direction 0.101953 -0.280114 0.954537   
     length 1.72105   
     axis -90 7.62852e-016 20   XYZ
    dof rx rz
    limits (-45.0 90.0)
           (-70.0 20.0)
  end
  begin
     id 5 
     name ltoes
     direction 1.53537e-011 -4.21915e-011 1   
     length 0.865872   
     axis -90 7.62852e-016 20   XYZ
    dof rx
    limits (-90.0 20.0)
  end
  begin
     id 6 
     name rhipjoint
     direction -0.695735 -0.620586 0.361699   
     length 2.81045  
     axis 0 0 0  XYZ 
  end
  begin
     id 7 
     name rfemur
     direction -0.34202 -0.939693 0   
     length 7.29387   
     axis 0 0 -20   XYZ
    dof rx ry rz
    limits (-160.0 20.0)
           (-70.0 70.0)
           (-70.0 60.0)
  end
  begin
     id 8 
     name rtibia
     direction -0.34202 -0.939693 0   
     length 7.44935   
     axis 0 0 -20   XYZ
    dof rx
    limits (-10.0 170.0)
 end
 begin
     id 9 
     name rfoot
     direction -0.104163 -0.286184 0.952496   
     length 1.77731  
     axis -90 -7.62852e-016 -20   XYZ
    dof rx rz
    limits (-45.0 90.0)
           (-20.0 70.0)
  end
  begin
     id 10 
     name rtoes
     direction -1.5355e-011 -4.21888e-011 1   
     length 0.892424   
     axis -90 -7.62852e-016 -20   XYZ
    dof rx
    limits (-90.0 20.0)
  end
  begin
     id 11 
     name lowerback
     direction 0.0100202 0.997226 -0.0737589   
     length 2.16892   
     axis 0 0 0   XYZ
    dof rx ry rz
    limits (-20.0 45.0)
           (-30.0 30.0)
           (-30.0 30.0)
  end
  begin
     id 12 
     name upperback
     direction 0.00432398 0.999988 -0.00215019   
     length 2.17326   
     axis 0 0 0   XYZ
    dof rx ry rz
    limits (-20.0 45.0)
           (-30.0 30.0)
           (-30.0 30.0)
  end
  begin
     id 13 
     name thorax
     direction -0.00195047 0.999485 0.0320434   
     length 2.18139   
     axis 0 0 0   XYZ
    dof rx ry rz
    limits (-20.0 45.0)
           (-30.0 30.0)
           (-30.0 30.0)
  end
  begin
     id 14 
     name lowerneck
     direction 0.00782762 0.986241 0.165128   
     length 1.88415   
     axis 0 0 0   XYZ
    dof rx ry rz
    limits (-20.0 45.0)
           (-30.0 30.0)
           (-30.0 30.0)
  end
  begin
     id 15 
     name upperneck
     direction 0.00988667 0.981098 -0.193258   
     length 1.9242   
     axis 0 0 0   XYZ
    dof rx ry rz
    limits (-20.0 45.0)
           (-30.0 30.0)
           (-30.0 30.0)
  end
  begin
     id 16
     name head
     direction 0.00252199 0.996513 -0.0833958  
     length 1.93887  
     axis 0 0 0   XYZ
    dof rx ry rz
    limits (-20.0 45.0)
           (-30.0 30.0)
           (-30.0 30.0)
  end
  begin
     id 17 
     name lclavicle
     direction 0.929492 0.368193 -0.0218667  
     length 3.5955  
     axis 0 0 0   XYZ
    dof ry rz
    limits (-20.0 10.0)
           (0.0 20.0)
  end
  begin
     id 18 
     name lhumerus
     direction 1 -4.48972e-011 1.41911e-027   
     length 5.2795   
     axis 180 -30 -90   XYZ
    dof rx ry rz
    limits (-60.0 90.0)
           (-90.0 90.0)
           (-90.0 90.0)
  end
  begin
     id 19
     name lradius
     direction 1 -4.48963e-011 7.05772e-027   
     length 3.53504   
     axis 180 -30 -90   XYZ
    dof rx
    limits (-10.0 170.0)
  end
  begin
     id 20
     name lwrist
     direction 1 -4.48957e-011 9.54866e-027   
     length 1.76752   
     axis -7.69462e-015 90 90   XYZ
    dof ry
    limits (-180.0 0.0)
 end
  begin
     id 21 
     name lhand
     direction 1 -4.48979e-011 1.90973e-026   
     length 0.667948   
     axis -1.21857e-014 90 90   XYZ
    dof rx rz
    limits (-90.0 90.0)
           (-45.0 45.0)
  end
  begin
     id 22 
     name lfingers
     direction 1 -4.48987e-011 3.81946e-026   
     length 0.538517   
     axis -2.43714e-014 90 90   XYZ
    dof rx
    limits (0.0 90.0)
  end
  begin
     id 23
     name lthumb
     direction 0.707107 -6.34962e-011 0.707107   
     length 0.773206   
     axis -90 45 2.85299e-015   XYZ
    dof rx rz
    limits (-45.0 45.0)
           (-45.0 45.0)
  end
  begin
     id 24 
     name rclavicle
     direction -0.898763 0.414256 -0.143584   
     length 3.5176  
     axis 0 0 0   XYZ 
    dof ry rz
    limits (-10.0 20.0)
           (-20.0 0.0)
  end
  begin
     id 25 
     name rhumerus
     direction -1 -4.48971e-011 1.129e-027  
     length 5.25035   
     axis 180 30 90   XYZ
    dof rx ry rz
    limits (-90.0 60.0)
           (-90.0 90.0)
           (-90.0 90.0)
  end
  begin
     id 26 
     name rradius
     direction -1 -4.48955e-011 6.34664e-027   
     length 3.58884   
     axis 180 30 90   XYZ
    dof rx
    limits (-10.0 170.0)
  end
  begin
     id 27 
     name rwrist
     direction -1 -4.48966e-011 9.54866e-027   
     length 1.79442   
     axis -7.69462e-015 -90 -90   XYZ
    dof ry
    limits (-180.0 0.0)
  end
  begin
     id 28
     name rhand
     direction -1 -4.48973e-011 1.90973e-026   
     length 0.779235   
     axis -1.21857e-014 -90 -90   XYZ
    dof rx rz
    limits (-90.0 90.0)
           (-45.0 45.0)
  end
  begin
     id 29
     name rfingers
     direction -1 -4.48984e-011 3.81946e-026   
     length 0.62824   
     axis -2.43714e-014 -90 -90   XYZ
    dof rx
    limits (0.0 90.0)
  end
  begin
     id 30
     name rthumb
     direction -0.707107 -6.34968e-011 0.707107   
     length 0.90203   
     axis -90 -45 -2.85299e-015   XYZ
    dof rx rz
    limits (-45.0 45.0)
           (-45.0 45.0)
  end
:hierarchy
  begin
    root lhipjoint rhipjoint lowerback
    lhipjoint lfemur
    lfemur ltibia
    ltibia lfoot
    lfoot ltoes
    rhipjoint rfemur
    rfemur rtibia
    rtibia rfoot
    rfoot rtoes
    lowerback upperback
    upperback thorax
    thorax lowerneck lclavicle rclavicle
    lowerneck upperneck
    upperneck head
    lclavicle lhumerus
    lhumerus lradius
    lradius lwrist
    lwrist lhand lthumb
    lhand lfingers
    rclavicle rhumerus
    rhumerus rradius
    rradius rwrist
    rwrist rhand rthumb
    rhand rfingers
  end

#!OML:ASF I:\Random Stuff\random\construction\7_22_03\Session 2\subj1.ASF
:FULLY-SPECIFIED
:DEGREES
67
root 4.51445 17.5795 1.59774 -111.14 88.2091 -116.012
lowerback 1.31978 1.10873 -2.20642
upperback -2.24816 1.45425 0.78306
thorax -3.12619 0.794134 1.98229
lowerneck -15.839 -7.81089 -1.50273
upperneck 37.4323 -18.8862 25.508
head 22.6129 -3.72446 9.99061
rclavicle -8.28373e-015 6.95746e-015
rhumerus -36.3987 -2.70221 -77.4498
rradius 30.3434
rwrist 2.82866
rhand -17.6046 21.0004
rfingers 7.12502
rthumb 8.65189 -8.80232
lclavicle -8.28373e-015 6.95746e-015
lhumerus -36.7878 -4.37163 88.0801
lradius 33.7265
lwrist 34.9026
lhand -20.3413 58.6514
lfingers 7.12502
lthumb 6.01034 88.5462
rfemur -5.51778 14.3917 23.0681
rtibia 17.8631
rfoot -12.6994 -35.612
rtoes -3.25538
lfemur -15.9745 -20.4709 -15.4006
ltibia 27.9979
lfoot -16.2578 15.8888
ltoes -30.4214
68
root 4.51011 17.5781 1.59969 -110.387 88.2638 -115.191
lowerback 1.25276 1.12595 -2.32038
upperback -2.12631 1.47469 0.787762
thorax -2.96692 0.803223 2.05296
lowerneck -15.0979 -7.99652 -1.04842
upperneck 38.5319 -19.2289 25.282
head 23.3406 -3.77644 10.0378
rclavicle 1.37286e-014 4.07509e-015
rhumerus -36.1877 -3.01012 -77.2425
rradius 30.6497
rwrist 2.60618
rhand -17.6195 20.9217
rfingers 7.12502
rthumb 8.63758 -8.88162
lclavicle 1.37286e-014 4.07509e-015
lhumerus -36.7942 -5.0744 88.3809
lradius 33.8012
lwrist 35.1743
lhand -20.3726 58.7319
lfingers 7.12502
lthumb 5.9801 88.6275
rfemur -5.47451 14.5557 23.0465
rtibia 17.8875
rfoot -12.8025 -35.6951
rtoes -3.0718
lfemur -15.9036 -20.5178 -15.4558
ltibia 27.9977
lfoot -16.2731 15.9643
ltoes -30.3755
69
root 4.50371 17.5777 1.60166 -109.529 88.2814 -114.308
lowerback 1.17291 1.15186 -2.37659
upperback -2.00282 1.50924 0.801819
thorax -2.79832 0.817884 2.1007
lowerneck -14.4675 -8.15289 -0.537102
upperneck 39.728 -19.466 24.7912
head 24.0877 -3.78909 9.94488
rclavicle -2.83455e-014 -7.85199e-015
rhumerus -35.9934 -3.27669 -77.0703
rradius 31.0385
rwrist 2.34752
rhand -17.7152 20.8042
rfingers 7.12502
rthumb 8.54516 -9.00289
lclavicle -2.83455e-014 -7.85199e-015
lhumerus -36.8788 -6.14915 88.8223
lradius 34.1023
lwrist 35.7983
lhand -20.5746 59.055
lfingers 7.12502
lthumb 5.78509 88.956
rfemur -5.48472 14.583 23.0447
rtibia 17.9043
rfoot -12.7939 -35.6841
rtoes -3.00289
lfemur -15.8936 -20.4358 -15.4608
ltibia 27.9924
lfoot -16.2181 15.9404
ltoes -30.542
70
root 4.49703 17.5792 1.60334 -108.138 88.2573 -112.925
lowerback 1.0353 1.17738 -2.38431
upperback -1.83707 1.54671 0.849872
thorax -2.55361 0.83178 2.15802
lowerneck -13.9718 -8.29632 -0.0894765
upperneck 41.02 -19.5957 24.0386
head 24.9003 -3.78535 9.73786
rclavicle 1.95182e-014 7.95139e-015
rhumerus -35.7645 -3.44137 -76.9132
rradius 31.4973
rwrist 2.04095
rhand -17.8834 20.759
rfingers 7.12502
rthumb 8.38286 -9.05466
lclavicle 1.95182e-014 7.95139e-015
lhumerus -36.7791 -6.97631 89.1813
lradius 34.2269
lwrist 36.0971
lhand -20.6469 59.114
lfingers 7.12502
lthumb 5.71524 89.017
rfemur -5.54125 14.5475 23.0829
rtibia 17.949
rfoot -12.7081 -35.648
rtoes -3.20466
lfemur -15.9109 -20.2741 -15.4075
ltibia 27.9645
lfoot -16.1924 15.7655
ltoes -30.3366
71
root 4.48931 17.5793 1.60437 -106.856 88.313 -111.599
lowerback 0.939222 1.20852 -2.44987
upperback -1.60772 1.58858 0.876526
thorax -2.26842 0.846964 2.2258
lowerneck -13.5402 -8.41521 0.284872
upperneck 42.3267 -19.6114 23.1688
head 25.7427 -3.76129 9.4944
rclavicle 2.177e-014 4.07509e-015
rhumerus -35.5246 -3.50896 -76.7967
rradius 32.0561
rwrist 1.74645
rhand -17.7841 20.7169
rfingers 7.12502
rthumb 8.47867 -9.09288
lclavicle 2.177e-014 4.07509e-015
lhumerus -36.4696 -7.42618 89.3402
lradius 34.1713
lwrist 36.0022
lhand -20.4391 58.8977
lfingers 7.12502
lthumb 5.91588 88.7951
rfemur -5.55068 14.6053 23.051
rtibia 18.0099
rfoot -12.7061 -35.6515
rtoes -3.1541
lfemur -15.852 -20.1685 -15.4624
ltibia 27.9177
lfoot -16.1757 15.6895
ltoes -30.2138
72
root 4.47979 17.5774 1.60443 -106.364 88.4576 -111.015
lowerback 0.923429 1.23072 -2.5871
upperback -1.35238 1.61493 0.876368
thorax -2.00245 0.854719 2.3055
lowerneck -13.1021 -8.47497 0.642141
upperneck 43.5681 -19.473 22.2524
head 26.4756 -3.68761 9.21824
rclavicle 2.74571e-015 -1.2921e-015
rhumerus -35.3437 -3.40701 -76.7613
rradius 32.716
rwrist 1.46866
rhand -17.6831 20.5358
rfingers 7.12502
rthumb 8.57616 -9.27007
lclavicle 2.74571e-015 -1.2921e-015
lhumerus -36.1648 -7.83169 89.4354
lradius 34.2479
lwrist 35.9993
lhand -20.3094 58.8611
lfingers 7.12502
lthumb 6.04113 88.755
rfemur -5.51979 14.6427 22.92
rtibia 18.0693
rfoot -12.691 -35.6461
rtoes -3.15776
lfemur -15.7371 -20.1379 -15.6391
ltibia 27.865
lfoot -16.1408 15.737
ltoes -30.2986
73
root 4.4694 17.5764 1.60446 -105.592 88.5573 -110.188
lowerback 0.911877 1.2477 -2.65575
upperback -1.11625 1.63637 0.877029
thorax -1.7566 0.859309 2.34751
lowerneck -12.6978 -8.50079 0.962449
upperneck 44.8106 -19.2158 21.256
head 27.2114 -3.58179 8.91304
rclavicle -3.41288e-014 -5.36719e-015
rhumerus -35.2332 -3.19839 -76.8073
rradius 33.3663
rwrist 1.1133
rhand -17.7905 20.4924
rfingers 7.12502
rthumb 8.47256 -9.3176
lclavicle -3.41288e-014 -5.36719e-015
lhumerus -35.9414 -8.35806 89.5561
lradius 34.4882
lwrist 36.2282
lhand -20.4436 59.0407
lfingers 7.12502
lthumb 5.91156 88.9382
rfemur -5.53671 14.6744 22.8279
rtibia 18.1397
rfoot -12.6933 -35.6526
rtoes -3.2547
lfemur -15.6743 -20.0906 -15.7474
ltibia 27.8111
lfoot -16.1062 15.7186
ltoes -30.1949
74
root 4.45861 17.5772 1.60456 -102.582 88.5646 -107.179
lowerback 0.866994 1.29351 -2.56441
upperback -0.892082 1.7 0.858596
thorax -1.50166 0.883099 2.2798
lowerneck -12.3764 -8.53258 1.27421
upperneck 46.0363 -18.903 20.1567
head 28.0688 -3.47067 8.56619
rclavicle 3.96016e-015 7.25564e-015
rhumerus -35.1499 -3.04622 -76.9173
rradius 33.9379
rwrist 0.745904
rhand -17.9444 20.7303
rfingers 7.12502
rthumb 8.32402 -9.08573
lclavicle 3.96016e-015 7.25564e-015
lhumerus -35.6732 -8.79635 89.5547
lradius 34.6979
lwrist 36.2956
lhand -20.4141 59.0745
lfingers 7.12502
lthumb 5.94006 88.9712
rfemur -5.61315 14.7936 22.8401
rtibia 18.2021
rfoot -12.7444 -35.6891
rtoes -3.15591
lfemur -15.6919 -19.9924 -15.7174
ltibia 27.7666
lfoot -16.0068 15.686
ltoes -30.2638
75
root 4.44834 17.5778 1.60392 -98.4489 88.5618 -103.037
lowerback 0.831858 1.34732 -2.41574
upperback -0.656089 1.77468 0.81896
thorax -1.2382 0.912082 2.15826
lowerneck -12.1976 -8.53536 1.64511
upperneck 47.3607 -18.498 18.8467
head 28.9135 -3.30052 8.04203
rclavicle -1.57226e-014 -7.35503e-015
rhumerus -35.0866 -2.76645 -77.1177
rradius 34.4749
rwrist 0.313679
rhand -18.1576 20.8096
rfingers 7.12502
rthumb 8.11824 -9.01443
lclavicle -1.57226e-014 -7.35503e-015
lhumerus -35.2922 -8.85374 89.3319
lradius 34.7703
lwrist 36.1041
lhand -20.178 58.9758
lfingers 7.12502
lthumb 6.16799 88.866
rfemur -5.65847 14.8926 22.8598
rtibia 18.2169
rfoot -12.7625 -35.6855
rtoes -3.06534
lfemur -15.7026 -19.9371 -15.6827
ltibia 27.7491
lfoot -15.9283 15.7886
ltoes -30.6276
76
root 4.43885 17.5782 1.60342 -95.3638 88.5908 -99.9101
lowerback 0.825266 1.37029 -2.30977
upperback -0.391576 1.80724 0.782634
thorax -0.960504 0.920662 2.0651
lowerneck -12.0879 -8.46828 1.95323
upperneck 48.5895 -17.8905 17.4374
head 29.7508 -3.08699 7.48153
rclavicle -7.03822e-015 5.56597e-015
rhumerus -35.0019 -2.29615 -77.3842
rradius 34.9528
rwrist -0.14364
rhand -18.3637 20.6916
rfingers 7.12502
rthumb 7.91927 -9.14008
lclavicle -7.03822e-015 5.56597e-015
lhumerus -34.9452 -8.59235 88.9821
lradius 34.9313
lwrist 35.917
lhand -20.0987 58.8102
lfingers 7.12502
lthumb 6.24455 88.6982
rfemur -5.64937 14.9495 22.8395
rtibia 18.2023
rfoot -12.8034 -35.657
rtoes -2.93018
lfemur -15.6734 -19.9201 -15.7059
ltibia 27.7512
lfoot -15.9661 15.86
ltoes -30.5908
77
root 4.42962 17.5798 1.60342 -91.2971 88.5933 -95.8233
lowerback 0.796952 1.3822 -2.18766
upperback -0.117342 1.82629 0.764946
thorax -0.66013 0.922906 1.98322
lowerneck -11.9005 -8.33026 2.06739
upperneck 49.6154 -17.1154 16.2176
head 30.3788 -2.8541 7.05597
rclavicle 1.39149e-015 -3.67752e-015
rhumerus -34.8824 -1.80432 -77.6463
rradius 35.3384
rwrist -0.452111
rhand -18.4185 20.6795
rfingers 7.12502
rthumb 7.86638 -9.15411
lclavicle 1.39149e-015 -3.67752e-015
lhumerus -34.7031 -8.16071 88.5793
lradius 35.3029
lwrist 35.8416
lhand -20.1169 58.5639
lfingers 7.12502
lthumb 6.22698 88.4524
rfemur -5.67808 15.0405 22.8388
rtibia 18.1986
rfoot -12.811 -35.6249
rtoes -2.659
lfemur -15.6619 -19.9148 -15.6888
ltibia 27.7514
lfoot -16.0394 15.8836
ltoes -30.1781
78
root 4.42105 17.5816 1.60316 -85.1642 88.5663 -89.7236
lowerback 0.700523 1.40797 -2.03013
upperback 0.120963 1.86531 0.74161
thorax -0.358119 0.936224 1.87688
lowerneck -11.5475 -8.15035 2.03469
upperneck 50.4919 -16.2053 15.1098
head 30.6919 -2.60301 6.6914
rclavicle 1.86858e-014 5.76476e-015
rhumerus -34.853 -1.24108 -77.9337
rradius 35.6685
rwrist -0.734759
rhand -18.4426 20.7642
rfingers 7.12502
rthumb 7.84321 -9.07034
lclavicle 1.86858e-014 5.76476e-015
lhumerus -34.6337 -7.82429 88.1741
lradius 35.8998
lwrist 36.0998
lhand -20.1691 58.595
lfingers 7.12502
lthumb 6.17656 88.485
rfemur -5.78037 15.0989 22.8401
rtibia 18.2112
rfoot -12.7675 -35.5265
rtoes -2.45112
lfemur -15.6975 -19.921 -15.6314
ltibia 27.7427
lfoot -16.0606 15.9884
ltoes -29.9396
79
root 4.41189 17.5836 1.60259 -79.018 88.5458 -83.6527
lowerback 0.589115 1.44114 -1.85727
upperback 0.320771 1.91379 0.668149
thorax -0.0852426 0.95573 1.71067
lowerneck -11.2256 -7.96248 2.00869
upperneck 51.4039 -15.2271 13.8762
head 30.876 -2.31839 6.2045
rclavicle 4.64908e-014 1.02374e-014
rhumerus -34.9526 -0.441992 -78.3719
rradius 35.9834
rwrist -1.18875
rhand -18.559 20.7719
rfingers 7.12502
rthumb 7.73082 -9.06682
lclavicle 4.64908e-014 1.02374e-014
lhumerus -34.6921 -7.74862 87.7444
lradius 36.6434
lwrist 36.6695
lhand -20.2483 58.8187
lfingers 7.12502
lthumb 6.10009 88.7109
rfemur -5.93274 15.1062 22.8008
rtibia 18.2238
rfoot -12.676 -35.3832
rtoes -2.57444
lfemur -15.7871 -19.9142 -15.58
ltibia 27.7376
lfoot -16.0692 16.0929
ltoes -29.6634
